<!-- icon666.com - MILLIONS vector ICONS FREE --><svg id="Layer_1" viewBox="0 0 24 24" xmlns="http://www.w3.org/2000/svg" data-name="Layer 1"><path d="m18 18h-12a1 1 0 0 1 0-2h12a1 1 0 0 1 0 2z"></path><path d="m18 13h-12a1 1 0 0 1 0-2h12a1 1 0 0 1 0 2z"></path><path d="m18 8h-12a1 1 0 0 1 0-2h12a1 1 0 0 1 0 2z"></path><path d="m20.352 23h-16.704a2.651 2.651 0 0 1 -2.648-2.649v-16.702a2.651 2.651 0 0 1 2.648-2.649h16.7a2.651 2.651 0 0 1 2.652 2.649v16.7a2.651 2.651 0 0 1 -2.648 2.651zm-16.704-20a.649.649 0 0 0 -.648.649v16.7a.649.649 0 0 0 .648.651h16.7a.649.649 0 0 0 .652-.649v-16.702a.649.649 0 0 0 -.648-.649z"></path></svg>